<svg width="755" height="161" viewBox="0 0 755 161" fill="none" xmlns="http://www.w3.org/2000/svg">
<path d="M4.25806 53.842C48.2998 80.4616 181.009 125.103 359.511 90.7114C538.014 56.3199 693.69 84.7253 749.216 103.227" stroke="#1A1A1A"/>
<circle cx="359.548" cy="90.2741" r="4.14699" transform="rotate(-3.82728 359.548 90.2741)" fill="#3F8AE2"/>
<path d="M4.32483 54.8401L49.4316 84.8964" stroke="#AAAAAA"/>
<path d="M705.325 81.3336L754.254 104.655" stroke="#AAAAAA"/>
<circle cx="750.28" cy="104.158" r="3.5" transform="rotate(-3.82728 750.28 104.158)" fill="white" stroke="#3F8AE2"/>
<circle cx="4.25808" cy="53.8424" r="3.5" transform="rotate(-3.82728 4.25808 53.8424)" fill="white" stroke="#3F8AE2"/>
<path d="M196.822 122.251L523.004 58.8675" stroke="#AAAAAA"/>
<rect x="190.662" y="123.118" width="4.52931" height="4.52931" transform="rotate(-48.8273 190.662 123.118)" fill="white" stroke="#3F8AE2"/>
<rect x="47.9036" y="86.5654" width="4.52931" height="4.52931" transform="rotate(-48.8273 47.9036 86.5654)" fill="white" stroke="#3F8AE2"/>
<rect x="700.579" y="79.7732" width="4.52931" height="4.52931" transform="rotate(-48.8273 700.579 79.7732)" fill="white" stroke="#3F8AE2"/>
<rect x="521.671" y="59.4115" width="4.52931" height="4.52931" transform="rotate(-48.8273 521.671 59.4115)" fill="white" stroke="#3F8AE2"/>
</svg>
