<svg width="93" height="22" viewBox="0 0 93 22" fill="none" xmlns="http://www.w3.org/2000/svg">
<path d="M14.8623 12.8614C15.4709 12.8614 15.9643 13.3548 15.9643 13.9635V14.3805C15.9643 15.2194 15.2842 15.8995 14.4453 15.8995H14.2964C12.7873 15.8995 11.7249 15.3237 11.1094 14.172C10.1165 15.5818 8.61735 16.2867 6.61181 16.2867C5.23343 16.2867 3.54394 17.2803 3.54394 18.6586V20.2482C3.54394 21.1364 2.82384 21.8566 1.93555 21.8566C1.04725 21.8566 0.327148 21.1364 0.327148 20.2482V2.61535C0.327148 1.72706 1.04725 1.00696 1.93555 1.00696C2.82384 1.00696 3.54394 1.72706 3.54394 2.61536V9.82336C3.54394 10.9155 3.84179 11.7693 4.4375 12.3849C5.0332 12.9806 5.8374 13.2784 6.85009 13.2784C8.00178 13.2784 8.92512 12.9309 9.62011 12.236C10.3151 11.5211 10.6626 10.429 10.6626 8.95959V2.61535C10.6626 1.72706 11.3827 1.00696 12.271 1.00696C13.1593 1.00696 13.8794 1.72706 13.8794 2.61535V11.8785C13.8794 12.1764 13.9687 12.4147 14.1475 12.5934C14.3262 12.7721 14.5644 12.8614 14.8623 12.8614Z" fill="#AAAAAA"/>
<path d="M22.2276 9.56277C22.2276 11.253 23.5978 12.6232 25.288 12.6232H29.0782C29.9829 12.6232 30.7164 13.3566 30.7164 14.2613C30.7164 15.1661 29.9829 15.8995 29.0782 15.8995H24.7593C21.4694 15.8995 18.8023 13.2325 18.8023 9.94249V2.71956C18.8023 1.77369 19.5691 1.00692 20.515 1.00692C21.4608 1.00692 22.2276 1.77369 22.2276 2.71956V9.56277Z" fill="#AAAAAA"/>
<path d="M36.3441 9.82336C35.7114 9.82336 35.2294 10.4159 35.5116 10.9823C35.8049 11.5711 36.2193 12.0585 36.7546 12.4444C37.6084 13.0401 38.6509 13.338 39.882 13.338C41.0258 13.338 41.9781 13.0618 42.7389 12.5095C43.3891 12.0374 44.2598 11.8042 44.9536 12.2095C45.7227 12.6589 45.9619 13.6831 45.3173 14.2979C43.9275 15.6238 42.1058 16.2867 39.8523 16.2867C37.4297 16.2867 35.4738 15.552 33.9846 14.0826C32.4953 12.5934 31.7507 10.7169 31.7507 8.45324C31.7507 6.22928 32.4854 4.37268 33.9548 2.88342C35.4242 1.37431 37.3106 0.619751 39.614 0.619751C41.7982 0.619751 43.5853 1.38423 44.9753 2.9132C46.3851 4.44217 47.09 6.29878 47.09 8.48303C47.09 9.25573 46.397 9.82336 45.6243 9.82336H36.3441ZM35.0866 7.20226H43.8435C43.625 5.991 43.1187 5.07759 42.3244 4.46203C41.55 3.84647 40.6366 3.53869 39.5842 3.53869C38.3928 3.53869 37.3999 3.86633 36.6057 4.5216C35.8114 5.17687 35.3051 6.07043 35.0866 7.20226Z" fill="#AAAAAA"/>
<path d="M61.6282 2.61536C61.6282 1.72706 62.3483 1.00696 63.2366 1.00696C64.1249 1.00696 64.845 1.72706 64.845 2.61536V14.2911C64.845 15.1794 64.1249 15.8995 63.2366 15.8995C62.3483 15.8995 61.6282 15.1794 61.6282 14.2911V13.755C60.417 15.4428 58.6795 16.2867 56.4158 16.2867C54.3706 16.2867 52.6232 15.5322 51.1736 14.0231C49.7241 12.4941 48.9993 10.6375 48.9993 8.45324C48.9993 6.24914 49.7241 4.39253 51.1736 2.88342C52.6232 1.37431 54.3706 0.619751 56.4158 0.619751C58.6795 0.619751 60.417 1.45373 61.6282 3.1217V2.61536ZM53.5564 11.8785C54.45 12.7721 55.5719 13.2189 56.9222 13.2189C58.2724 13.2189 59.3943 12.7721 60.2879 11.8785C61.1814 10.9651 61.6282 9.82336 61.6282 8.45324C61.6282 7.08312 61.1814 5.95129 60.2879 5.05773C59.3943 4.14432 58.2724 3.68762 56.9222 3.68762C55.5719 3.68762 54.45 4.14432 53.5564 5.05773C52.6629 5.95129 52.2161 7.08312 52.2161 8.45324C52.2161 9.82336 52.6629 10.9651 53.5564 11.8785Z" fill="#AAAAAA"/>
<path d="M71.8112 3.50891C72.4044 2.16354 73.3769 1.30825 74.7288 0.943024C75.6279 0.700142 76.3981 1.49386 76.3981 2.42517C76.3981 3.3992 75.5528 4.13064 74.6176 4.40265C74.1017 4.55268 73.623 4.7909 73.1814 5.11731C72.2679 5.77258 71.8112 6.8647 71.8112 8.39367V14.2911C71.8112 15.1794 71.0911 15.8995 70.2028 15.8995C69.3145 15.8995 68.5944 15.1794 68.5944 14.2911V2.61535C68.5944 1.72706 69.3145 1.00696 70.2028 1.00696C71.0911 1.00696 71.8112 1.72706 71.8112 2.61536V3.50891Z" fill="#AAAAAA"/>
<path d="M86.6084 0.619751C88.3161 0.619751 89.6961 1.16581 90.7485 2.25793C91.8009 3.35005 92.3271 4.84924 92.3271 6.75549V14.2911C92.3271 15.1794 91.607 15.8995 90.7188 15.8995C89.8305 15.8995 89.1104 15.1794 89.1104 14.2911V7.08312C89.1104 5.97115 88.8125 5.1173 88.2168 4.5216C87.6211 3.9259 86.807 3.62805 85.7744 3.62805C84.6426 3.62805 83.7292 3.98547 83.0342 4.70031C82.3392 5.3953 81.9917 6.46756 81.9917 7.91711V14.2911C81.9917 15.1794 81.2716 15.8995 80.3833 15.8995C79.495 15.8995 78.7749 15.1794 78.7749 14.2911V2.61535C78.7749 1.72706 79.495 1.00696 80.3833 1.00696C81.2716 1.00696 81.9917 1.72706 81.9917 2.61535V2.9132C82.9647 1.38423 84.5036 0.619751 86.6084 0.619751Z" fill="#AAAAAA"/>
</svg>
