<svg width="24" height="26" viewBox="0 0 24 26" fill="none" xmlns="http://www.w3.org/2000/svg">
<path d="M23.1206 6.50204C23.1229 6.10191 23.0234 5.70776 22.8314 5.35671C22.6394 5.00567 22.3612 4.70927 22.0229 4.49543C21.6847 4.28158 21.2977 4.15734 20.8982 4.13439C20.4987 4.11143 20.1 4.19053 19.7395 4.36423C19.7157 3.96128 19.5914 3.5707 19.3779 3.2281C19.1645 2.88551 18.8687 2.60179 18.5175 2.40282C18.1662 2.20385 17.7708 2.09596 17.3672 2.08899C16.9636 2.08201 16.5647 2.17617 16.2068 2.36288C16.1665 1.78342 15.9251 1.23622 15.5244 0.815685C15.1237 0.395153 14.5888 0.127669 14.012 0.0593828C13.4351 -0.00890357 12.8525 0.126291 12.3647 0.44164C11.8769 0.75699 11.5145 1.23272 11.3399 1.78674C10.9597 1.55873 10.5248 1.4382 10.0815 1.43802C9.75532 1.43901 9.43254 1.50436 9.13166 1.63034C8.83079 1.75631 8.55773 1.94042 8.32814 2.17212C8.09856 2.40382 7.91695 2.67855 7.79374 2.98057C7.67053 3.28258 7.60814 3.60595 7.61014 3.93212V13.5295C6.63978 12.3166 5.69218 11.1188 5.54814 10.9141C5.3289 10.566 5.02447 10.2795 4.66365 10.0819C4.30283 9.88422 3.89755 9.78188 3.48615 9.78455C3.13719 9.774 2.78978 9.83508 2.46535 9.96402C2.14092 10.093 1.84636 10.287 1.59986 10.5343C1.35335 10.7815 1.16013 11.0766 1.03212 11.4014C0.904114 11.7262 0.844032 12.0738 0.855587 12.4227C0.923815 13.7872 3.56195 18.6087 5.33588 21.2317C8.0195 25.204 10.5818 25.7802 10.6955 25.7802H18.6706C18.8215 25.7785 18.9678 25.728 19.0876 25.6361C20.4489 24.3816 21.4334 22.7723 21.9304 20.9891C22.6885 18.6466 23.0903 15.2807 23.1282 10.7094L23.1206 6.50204ZM20.6341 20.5645C20.2084 22.0074 19.4443 23.3277 18.4053 24.4156H10.8926C10.5363 24.3095 8.56532 23.5817 6.44268 20.4357C4.32004 17.2896 2.25805 13.0974 2.22014 12.3545C2.21403 12.1958 2.24123 12.0376 2.29999 11.89C2.35874 11.7425 2.44775 11.6089 2.56128 11.4978C2.67311 11.3827 2.80774 11.2923 2.95656 11.2322C3.10538 11.1721 3.26511 11.1438 3.4255 11.1491C3.62576 11.1375 3.82534 11.1816 4.002 11.2766C4.17867 11.3716 4.32551 11.5138 4.42617 11.6873C4.64602 12.0133 6.21526 13.9616 7.13254 15.1215L8.97469 13.8782V3.93212C8.96195 3.77754 8.9814 3.622 9.03181 3.47531C9.08223 3.32863 9.16251 3.19399 9.26758 3.0799C9.37266 2.96581 9.50025 2.87475 9.64229 2.81246C9.78434 2.75017 9.93776 2.71801 10.0929 2.71801C10.248 2.71801 10.4014 2.75017 10.5434 2.81246C10.6855 2.87475 10.8131 2.96581 10.9182 3.0799C11.0232 3.19399 11.1035 3.32863 11.1539 3.47531C11.2043 3.622 11.2238 3.77754 11.211 3.93212V12.3772H12.5756V2.52208C12.6079 2.24312 12.7415 1.98575 12.9512 1.79894C13.1609 1.61212 13.4319 1.5089 13.7127 1.5089C13.9936 1.5089 14.2646 1.61212 14.4742 1.79894C14.6839 1.98575 14.8176 2.24312 14.8499 2.52208V12.4758H16.2144V4.55375C16.2019 4.40428 16.2205 4.25384 16.2691 4.11193C16.3177 3.97003 16.3952 3.83976 16.4968 3.72935C16.5983 3.61895 16.7216 3.53081 16.859 3.47053C16.9963 3.41024 17.1447 3.37912 17.2947 3.37912C17.4447 3.37912 17.593 3.41024 17.7304 3.47053C17.8677 3.53081 17.9911 3.61895 18.0926 3.72935C18.1942 3.83976 18.2717 3.97003 18.3203 4.11193C18.3689 4.25384 18.3875 4.40428 18.375 4.55375V13.2263H19.7395V6.47929C19.7614 6.22796 19.8767 5.99395 20.0626 5.82345C20.2486 5.65296 20.4917 5.55838 20.744 5.55838C20.9963 5.55838 21.2394 5.65296 21.4253 5.82345C21.6113 5.99395 21.7266 6.22796 21.7484 6.47929V10.6867C21.7257 15.167 21.3618 18.3585 20.6341 20.5645Z" fill="#1A1A1A"/>
</svg>
