<svg width="16" height="30" viewBox="0 0 16 30" fill="none" xmlns="http://www.w3.org/2000/svg">
<path d="M10.6026 14.0791H9.78716V6.70969C10.0723 6.08604 10.4904 5.53138 11.013 5.08509C11.3454 4.84518 11.7504 4.62695 12.1835 4.46499C12.6401 4.38777 13.2097 4.35211 13.7787 4.38783L14.5926 4.43892L14.6437 3.62503L14.7459 1.99725L14.797 1.18336L13.9831 1.13227C13.1103 1.07749 12.2341 1.13634 11.3765 1.30734L11.3214 1.31831L11.2684 1.33672C10.3919 1.64108 9.67128 2.02364 9.0151 2.50736L8.99405 2.52288L8.97404 2.53971C8.68866 2.77976 8.42279 3.0351 8.1771 3.30459C7.96008 3.05254 7.72804 2.81275 7.48195 2.58662L7.45527 2.56211L7.42653 2.54006C6.70376 1.9856 5.9527 1.59764 5.14781 1.34869L5.10974 1.33691L5.07071 1.3289C4.12672 1.13526 3.24226 1.07549 2.35908 1.13245L1.54527 1.18493L1.59776 1.99873L1.70273 3.62634L1.75521 4.44014L2.56901 4.38765C3.14821 4.3503 3.72974 4.38706 4.2995 4.49701C4.63273 4.60913 5.01362 4.80449 5.35971 5.06216C5.83309 5.5088 6.25106 6.09825 6.5415 6.75991L6.5415 14.0791H5.72601H4.91052V14.8946L4.91052 16.4929V17.3084H5.72601H6.5415V23.0615C6.25181 23.7201 5.83126 24.3135 5.30493 24.8053C5.01647 25.0156 4.637 25.2118 4.22708 25.3432C3.73268 25.4346 3.15127 25.4719 2.56984 25.4341L1.75607 25.3812L1.70317 26.195L1.59737 27.8226L1.54447 28.6363L2.35824 28.6892C3.23832 28.7464 4.12209 28.6875 4.98678 28.514L5.02512 28.5063L5.06256 28.495C5.94159 28.2289 6.69543 27.8431 7.36688 27.3315L7.39601 27.3093L7.42303 27.2846C7.69581 27.0351 7.94941 26.7739 8.18375 26.5016C8.42306 26.7629 8.68023 27.0087 8.95385 27.2372L8.97165 27.2521L8.99026 27.2659C9.67813 27.7768 10.3974 28.1612 11.1634 28.4346L11.2132 28.4524L11.2648 28.4636C12.2239 28.6714 13.097 28.7381 13.9703 28.6902L14.7845 28.6456L14.7399 27.8313L14.6505 26.2028L14.6058 25.3885L13.7916 25.4332C13.2272 25.4641 12.6614 25.4243 12.1071 25.3146C11.7684 25.1805 11.3626 24.9623 10.9893 24.6888C10.4971 24.2716 10.0768 23.7202 9.78716 23.0933V17.3084H10.6026H11.4181V16.4929V14.8946V14.0791H10.6026Z" fill="#1A1A1A" stroke="white" stroke-width="1.63098"/>
</svg>
