<svg width="22" height="47" viewBox="0 0 22 47" fill="none" xmlns="http://www.w3.org/2000/svg">
<g filter="url(#filter0_d_521_4847)">
<path d="M8.72224 41.2333L3.42224 35.9333L6.07224 33.2833L9.31113 36.5222L9.31113 23.5667V10.6111L5.18891 13.85L3.42224 11.2L8.72224 5.9H14.0222L18.4389 10.3167L16.6722 13.85L12.8445 10.3167L12.8445 23.5667L12.8445 36.5222L16.6722 33.2833L18.4389 36.8167L14.0222 41.2333H8.72224Z" fill="white"/>
<path d="M18.8346 37.2492C19.1992 36.9251 19.232 36.3668 18.9079 36.0021C18.5838 35.6375 18.0255 35.6047 17.6609 35.9288L18.8346 37.2492ZM11.0353 43L10.4107 43.6246L10.9997 44.2136L11.6222 43.6602L11.0353 43ZM4.44757 35.163C4.10261 34.8181 3.54331 34.8181 3.19835 35.163C2.85339 35.508 2.85339 36.0673 3.19835 36.4122L4.44757 35.163ZM10.4107 39.6177C10.7557 39.9627 11.315 39.9627 11.6599 39.6177L17.2814 33.9962C17.6264 33.6513 17.6264 33.092 17.2814 32.747C16.9365 32.4021 16.3772 32.4021 16.0322 32.747L11.0353 37.7439L6.03844 32.747C5.69347 32.4021 5.13418 32.4021 4.78921 32.747C4.44425 33.092 4.44425 33.6513 4.78921 33.9962L10.4107 39.6177ZM11.6599 7.91628C11.315 7.57131 10.7557 7.57131 10.4107 7.91628L4.78921 13.5378C4.44425 13.8827 4.44425 14.442 4.78921 14.787C5.13418 15.132 5.69347 15.132 6.03844 14.787L11.0353 9.79011L16.0322 14.787C16.3772 15.132 16.9365 15.132 17.2814 14.787C17.6264 14.442 17.6264 13.8827 17.2814 13.5378L11.6599 7.91628ZM18.0615 11.5607C18.4261 11.8848 18.9845 11.852 19.3086 11.4874C19.6327 11.1227 19.5998 10.5644 19.2352 10.2403L18.0615 11.5607ZM11.0353 4.13334L11.6222 3.47313L10.9996 2.91978L10.4107 3.50873L11.0353 4.13334ZM2.79763 11.1218C2.45267 11.4668 2.45267 12.026 2.79763 12.371C3.14259 12.716 3.70189 12.716 4.04685 12.371L2.79763 11.1218ZM17.6609 35.9288L10.4485 42.3398L11.6222 43.6602L18.8346 37.2492L17.6609 35.9288ZM11.6599 42.3754L4.44757 35.163L3.19835 36.4122L10.4107 43.6246L11.6599 42.3754ZM11.9187 38.9931L11.9187 8.54089H10.152L10.152 38.9931H11.9187ZM19.2352 10.2403L11.6222 3.47313L10.4484 4.79355L18.0615 11.5607L19.2352 10.2403ZM10.4107 3.50873L2.79763 11.1218L4.04685 12.371L11.6599 4.75795L10.4107 3.50873Z" fill="#1A1A1A"/>
</g>
<defs>
<filter id="filter0_d_521_4847" x="0.242213" y="0.62311" width="21.5861" height="45.8871" filterUnits="userSpaceOnUse" color-interpolation-filters="sRGB">
<feFlood flood-opacity="0" result="BackgroundImageFix"/>
<feColorMatrix in="SourceAlpha" type="matrix" values="0 0 0 0 0 0 0 0 0 0 0 0 0 0 0 0 0 0 127 0" result="hardAlpha"/>
<feOffset/>
<feGaussianBlur stdDeviation="1.14833"/>
<feComposite in2="hardAlpha" operator="out"/>
<feColorMatrix type="matrix" values="0 0 0 0 0 0 0 0 0 0 0 0 0 0 0 0 0 0 0.25 0"/>
<feBlend mode="normal" in2="BackgroundImageFix" result="effect1_dropShadow_521_4847"/>
<feBlend mode="normal" in="SourceGraphic" in2="effect1_dropShadow_521_4847" result="shape"/>
</filter>
</defs>
</svg>
