<svg width="48" height="45" viewBox="0 0 48 45" fill="none" xmlns="http://www.w3.org/2000/svg">
<path fill-rule="evenodd" clip-rule="evenodd" d="M45.7427 2.0088C41.4097 -0.304602 31.2529 0.351297 25.6845 0.94299C24.9007 0.928392 23.9653 0.880614 22.901 0.826253C19.9123 0.6736 15.9073 0.469037 11.3905 0.801511C10.227 0.887088 9.06392 0.904473 7.95636 0.921028C5.52832 0.95732 3.36724 0.989622 2.05462 1.72764C0.397874 2.65858 0.711549 6.44325 1.02853 10.2678C1.09791 11.1049 1.16745 11.9439 1.21652 12.7553C1.33004 14.6328 1.21231 16.179 1.09211 17.7577C0.987315 19.1339 0.880648 20.5348 0.92371 22.2013C0.968381 23.9307 0.939963 25.7376 0.911795 27.5286C0.860848 30.768 0.81072 33.9554 1.19534 36.5379C1.24403 36.8648 1.28764 37.22 1.33318 37.5908C1.55108 39.3652 1.8129 41.4972 2.8837 42.5965C4.61566 44.3738 8.04728 44.1594 10.9772 43.9762C11.6981 43.9312 12.3887 43.888 13.016 43.8769C22.556 43.7088 30.8875 43.6444 36.4741 43.7989C37.0216 43.814 37.5423 43.8318 38.0376 43.8487C42.4398 43.9991 44.834 44.0809 46.2021 41.6075C47.4179 39.41 47.3452 31.8114 47.2467 21.5148C47.214 18.0975 47.1785 14.383 47.1862 10.4702C47.1746 9.5296 47.2194 8.6222 47.2614 7.76937C47.3937 5.0884 47.4994 2.94664 45.7427 2.0088ZM44.8585 2.53604C40.7024 0.292276 30.9595 0.928391 25.6182 1.50194C24.8661 1.48781 23.9685 1.44147 22.9473 1.38875C20.0805 1.24075 16.2392 1.04243 11.9065 1.36507C10.7905 1.44804 9.67485 1.46487 8.61252 1.4809C6.28346 1.51603 4.21056 1.5473 2.95125 2.26328C1.36235 3.1662 1.6632 6.8379 1.96718 10.5478C2.03368 11.3594 2.10033 12.1729 2.14738 12.9595C2.25646 14.7809 2.14353 16.2809 2.02821 17.8125C1.92773 19.147 1.82545 20.5055 1.86662 22.1215C1.90938 23.7981 1.88213 25.55 1.85512 27.2866C1.80625 30.4291 1.75815 33.5214 2.12708 36.0266C2.17389 36.3441 2.21581 36.6891 2.25958 37.0492L2.25958 37.0493C2.4687 38.77 2.71984 40.8367 3.74682 41.903C5.40816 43.6269 8.69928 43.4189 11.5095 43.2413C12.2014 43.1976 12.8641 43.1557 13.4662 43.145C22.617 42.9816 30.6087 42.9201 35.9672 43.0693C36.4922 43.0839 36.9915 43.1012 37.4664 43.1176C41.6903 43.2635 43.9871 43.3428 45.2995 40.9437C46.4655 38.8124 46.3959 31.4452 46.3016 21.4616V21.4615V21.4614V21.4611V21.4609V21.4607V21.4604V21.4601V21.4598V21.4594V21.459V21.4586C46.2703 18.1432 46.2362 14.5394 46.2438 10.743C46.2325 9.83037 46.2753 8.94987 46.3156 8.12234C46.4421 5.52251 46.5432 3.44547 44.8585 2.53604ZM21.7964 34.9994C21.8815 36.7204 21.9306 37.7143 23.0899 39.5557L23.6861 40.7983C22.041 41.3446 21.2656 41.3528 20.6984 40.0498C19.8485 38.0963 19.555 36.7625 19.359 35.8718C19.1061 34.7228 19.0155 34.311 18.1025 34.2574C17.1195 34.1995 18.0608 38.3527 18.3377 39.4877C18.1219 39.4412 17.9335 39.403 17.7686 39.3696L17.7668 39.3693L17.7662 39.3692L17.7643 39.3688L17.7641 39.3687C16.7717 39.1678 16.6292 39.139 16.4336 38.4999C16.3185 38.1247 16.2057 37.5402 16.0918 36.9498C15.9435 36.181 15.7932 35.4025 15.6337 35.0639C14.9163 33.544 13.4653 26.3185 13.408 24.5666C13.6608 24.4546 13.9373 24.3181 14.2045 24.1863L14.2045 24.1863L14.2046 24.1863C14.7251 23.9294 15.2101 23.6901 15.4143 23.6834C15.5174 23.7061 15.5356 23.7629 15.5631 23.8491C15.5685 23.8657 15.5741 23.8834 15.5808 23.9021C15.6087 23.9811 15.7202 24.2757 15.876 24.687L15.876 24.687C16.3809 26.0205 17.3505 28.581 17.4391 28.9992C17.8281 30.8373 18.9732 30.2126 18.7889 29.1782C18.7193 28.7878 18.4497 28.0569 18.1456 27.2325C17.5516 25.622 16.826 23.6547 17.2026 23.172C17.5708 22.6999 18.6036 22.513 20.8469 22.7593C20.7836 24.5056 21.3841 30.7104 21.5747 32.2429C21.7165 33.3809 21.7598 34.2577 21.7964 34.9994ZM29.8989 40.9236C30.5196 40.9179 31.2782 40.8277 32.0732 40.666C33.7608 40.3231 35.6147 39.6565 36.6716 38.7848C37.9612 37.3337 36.9312 36.0117 36.8785 35.9439L36.8764 35.9412C36.0373 35.238 35.1519 35.6649 34.4345 36.0107C33.3255 36.5453 32.6182 36.8863 33.1049 32.5591C33.1374 32.2693 33.2648 31.6327 33.419 30.8623L33.419 30.8622C33.8128 28.8942 34.3815 26.0527 33.9907 25.8852C30.5296 24.4018 30.6892 26.5044 30.8915 29.1702C30.9424 29.8409 30.996 30.5472 30.9954 31.241C30.9935 32.8004 30.6874 34.238 30.3878 35.6446C30.0153 37.3939 29.6529 39.0953 29.8989 40.9236ZM14.5713 39.1965C13.0347 40.0181 11.4999 39.7326 10.0708 38.4701C8.62052 37.1879 4.13158 26.8612 6.22755 26.6701C6.71293 26.6255 10.5448 26.1944 12.1165 26.0176C12.5283 25.9713 12.785 25.9424 12.7857 25.9425C12.7825 26.5134 13.2959 29.9116 13.5734 31.7483C13.6776 32.4373 13.7485 32.9066 13.7464 32.9245C12.0147 35.1366 11.2802 34.9411 11.0066 31.6627C10.8244 29.4836 9.92715 29.2004 9.6988 29.8509C9.39811 30.7075 9.59296 31.6874 9.79405 32.5246C9.96583 33.2364 11.9631 38.4075 12.6478 38.2548C13.0363 38.1395 12.7527 37.564 12.4563 36.9625C12.2023 36.4471 11.939 35.9126 12.0811 35.6323L13.7842 35.1936C14.8826 34.9106 14.834 36.689 14.8001 37.9294C14.7979 38.0084 14.7958 38.0852 14.7941 38.1592C14.7812 38.7052 14.6106 39.1044 14.5763 39.1848L14.5713 39.1965ZM8.52207 19.4989C10.6029 18.8363 9.37329 21.9077 8.47484 21.2707C8.21627 21.087 7.6402 19.7796 8.52207 19.4989ZM9.60461 13.7271C9.62235 17.535 6.08657 15.9221 9.24595 11.9248C9.84215 11.17 9.65314 13.1994 9.6117 13.6442L9.6117 13.6442C9.60731 13.6914 9.60458 13.7207 9.60461 13.7271ZM12.7047 14.7093C12.6973 13.1314 11.6436 6.74345 11.1472 5.7228C4.39327 7.65003 4.17189 24.2532 6.43356 25.1202C7.7163 25.6118 15.7927 19.9065 12.5017 18.0281C11.5145 17.4647 10.6452 17.3147 10.1757 17.2337C9.94892 17.1946 9.81546 17.1715 9.80715 17.1258C9.79527 17.0604 10.0392 16.9485 10.6318 16.6767L10.6319 16.6767L10.6319 16.6766L10.6319 16.6766L10.632 16.6766L10.6321 16.6765C10.8497 16.5767 11.1142 16.4554 11.4303 16.3069C11.6414 16.2078 11.8229 16.1497 11.9773 16.1004C12.4897 15.9366 12.7027 15.8685 12.7047 14.7093ZM27.3641 23.8089C29.7616 25.2259 23.6921 25.3101 22.9687 24.2155C22.3054 23.058 23.9153 23.194 25.4185 23.392C25.5288 23.4066 25.6377 23.4198 25.7451 23.4329C26.3269 23.5036 26.8655 23.5691 27.3641 23.8089ZM21.2081 4.50507C21.7213 6.20954 21.5349 8.23164 21.3427 10.3169L21.3427 10.3169C21.23 11.5399 21.1153 12.7846 21.1385 13.9996C21.1818 16.2518 20.269 22.3608 20.5655 14.9731C20.6218 13.5654 20.3753 12.2 19.6931 10.5954C19.3344 9.59758 18.1646 9.45281 17.2887 9.95344C17.1257 10.0466 16.7364 10.1714 16.263 10.3232C15.1309 10.6861 13.5175 11.2034 13.3631 11.8113C13.0595 13.0088 13.6265 16.9962 14.1197 18.3345C14.5073 18.2504 15.564 17.3271 16.4346 16.1755C16.6076 15.9467 16.4375 15.5879 16.197 15.0806C15.8376 14.3223 15.3209 13.2322 15.5579 11.7489C15.6336 11.2753 15.9419 11.0658 16.2369 10.9724C18 10.9401 20.0225 15.0275 17.579 18.6881C17.356 19.0214 16.6936 19.8262 13.9137 20.3253C13.1967 20.454 12.6541 23.0362 12.8454 23.6911C14.0408 23.5948 15.1264 23.1186 16.33 22.5908C18.0113 21.8534 19.9225 21.0151 22.6843 20.9705C22.6876 20.9614 22.9102 18.9913 22.918 18.7041C22.9877 18.2497 23.1235 17.5182 23.2914 16.6137L23.2915 16.6131L23.2915 16.613C24.0295 12.6374 25.3876 5.32087 24.4832 3.50354C23.4959 3.39873 22.5128 3.87491 21.6024 4.31589L21.6022 4.31597L21.602 4.31609C21.469 4.38048 21.3377 4.44411 21.2081 4.50507ZM25.4766 33.2153C25.7009 34.5787 25.8131 35.2612 26.6305 34.8782C27.3185 34.5555 27.4745 34.07 27.1069 33.3843C26.7034 32.6313 26.4228 31.6965 26.1681 30.8477L26.1681 30.8477C25.9431 30.0981 25.7383 29.4157 25.4867 28.9848C25.2337 28.5518 24.9093 28.2981 24.5187 28.6352C24.3626 28.9804 24.4274 29.152 24.5814 29.5598C24.6361 29.7046 24.702 29.8792 24.7733 30.102C25.1666 31.3301 25.3418 32.3958 25.4766 33.2153ZM22.2719 31.9114C22.1428 30.9009 22.0024 29.801 21.754 28.6338C20.9148 24.6898 22.8984 24.9677 24.3291 25.1682C24.5419 25.198 24.7425 25.2261 24.9197 25.2383C25.4661 25.2761 25.9448 25.2996 26.3646 25.3201L26.3647 25.3201C27.7062 25.3857 28.4473 25.4219 28.8813 25.8056C29.417 26.2792 29.4847 27.2823 29.636 29.5237C29.6941 30.3846 29.7646 31.4281 29.8786 32.6944C30.6205 40.9287 27.1458 38.9272 25.5943 38.0335C25.393 37.9176 25.2242 37.8203 25.101 37.7664C22.8964 36.8033 22.6275 34.6971 22.2719 31.9114ZM27.4545 7.80286C28.4767 6.88633 28.6724 8.4095 28.4525 9.49041C28.3203 10.1413 28.2075 10.6899 28.1119 11.1546C27.6859 13.2256 27.6023 13.632 27.6712 14.0107C27.688 14.1032 27.7139 14.194 27.7461 14.307C27.8408 14.6391 27.9901 15.1626 28.1239 16.4823C28.2886 18.1081 27.6548 18.6437 26.4613 18.5133C26.4608 18.5125 26.4591 18.4945 26.4559 18.4615L26.4559 18.4614C26.4069 17.9443 26.0112 13.7699 24.5424 15.2073C24.3487 15.3964 24.077 18.6908 23.9471 20.2655L23.947 20.2659C23.9195 20.6001 23.8983 20.8568 23.8856 20.9899C24.2959 21.0171 24.5413 21.0981 24.8468 21.1989C25.5325 21.4251 26.5207 21.7512 30.3532 21.7931C30.3616 18.7519 29.9222 17.2328 29.5827 16.0592C29.237 14.8639 28.9949 14.0271 29.4353 12.306C29.6103 11.6224 30.1583 10.7765 30.6258 10.0551L30.6258 10.055C31.0016 9.47503 31.3253 8.97539 31.3613 8.70508C31.5519 6.57348 29.1615 4.40886 26.2169 4.83452C26.0332 7.37534 25.923 7.91848 25.7311 8.8643C25.5971 9.52459 25.4234 10.3811 25.1569 12.2506C27.0621 12.413 27.0518 11.6868 27.0347 10.4881C27.0241 9.74249 27.0109 8.81401 27.4545 7.80286ZM37.7193 27.5369C37.7151 27.7026 37.811 28.2335 38.1043 28.1234C39.0241 28.0485 39.0854 26.2926 38.7857 25.7123C38.1085 24.9755 37.6533 25.0723 37.6467 25.9183C37.6429 26.3978 37.6439 27.0607 37.7193 27.5369ZM35.2832 26.2316C35.4155 25.7007 35.4927 25.3907 35.506 24.9941C35.413 25.0082 35.2736 25.0627 35.1079 25.1273C34.7308 25.2746 34.2176 25.475 33.8065 25.3739C33.1363 25.2098 33.1721 24.0756 33.6484 23.7048C34.6441 22.9291 35.0857 22.7589 36.5169 22.5997C38.2032 22.4119 39.1407 22.7272 39.9796 23.0968C42.6165 24.6817 42.4889 31.9602 41.9673 34.5228C41.9613 34.5527 41.9555 34.6085 41.9479 34.6837L41.9478 34.6837V34.6838C41.8853 35.2953 41.6918 37.1867 40.1253 36.8078L39.3206 36.3269L39.3553 30.8972C39.3698 28.6702 35.7981 30.8309 35.7527 34.0306C35.6564 35.1315 34.6581 35.1731 34.1342 35.0044L34.611 29.4732C34.9005 27.7686 35.1292 26.8502 35.2832 26.2317L35.2832 26.2316ZM33.4998 13.852L33.499 13.8463L33.4973 13.8362C33.4888 13.7823 33.4794 13.7258 33.4696 13.6671L33.4696 13.667C33.422 13.3815 33.3659 13.0443 33.3595 12.7016C33.3604 12.6951 33.3612 12.689 33.3628 12.6833L33.3631 12.664C33.3647 12.5347 33.3687 12.211 33.4467 12.1351C33.5842 12.0007 33.9094 12.1367 34.043 12.2238C34.0499 12.2289 34.0571 12.2336 34.0646 12.2386L34.0786 12.248L34.0819 12.2496C34.0979 12.261 34.1149 12.2732 34.1326 12.2864C34.623 12.6483 34.6884 12.7091 34.6328 13.2398C34.5749 13.7069 34.4482 14.1285 34.2338 14.4133L34.2176 14.4397C34.13 14.583 33.9193 14.9277 33.7553 14.6822C33.746 14.6706 33.7373 14.6564 33.7306 14.6391C33.7074 14.5607 33.6794 14.4778 33.6509 14.3932L33.6508 14.3929C33.5898 14.2121 33.5261 14.0232 33.4998 13.852ZM30.8969 16.3993C30.8944 17.8222 31.3673 21.5834 32.0829 22.0185C33.0273 22.5919 35.409 22.0853 37.2964 21.6839C38.1133 21.5102 38.8376 21.3561 39.3126 21.3179C41.4958 21.1421 41.4946 20.8091 41.4889 19.2389V19.2388C41.4874 18.8211 41.4856 18.316 41.5245 17.7029C41.7905 13.521 41.7551 10.0304 37.2827 10.9079C38.0236 12.5372 38.6918 14.9048 38.3523 16.3819C37.6384 20.1536 34.2224 20.1753 33.9594 16.7035C36.2916 16.6032 36.47 16.4028 36.4669 11.973C36.4637 7.98821 33.905 6.87166 31.1677 11.0165C30.6693 11.7708 30.7725 13.7229 30.8504 15.1959V15.1959V15.1959C30.8751 15.6631 30.8973 16.082 30.8969 16.3993Z" fill="#AAAAAA"/>
</svg>
