<svg width="81" height="103" viewBox="0 0 81 103" fill="none" xmlns="http://www.w3.org/2000/svg">
<g clip-path="url(#clip0_521_4710)">
<path d="M36.3828 97.5723C44.2984 95.7324 49.2295 87.8149 47.3896 79.8993L44.0566 65.5593L29.7166 68.8924C21.8009 70.7322 16.8699 78.6498 18.7097 86.5654C20.5496 94.4811 28.4671 99.4122 36.3828 97.5723Z" fill="#0ACF83"/>
<path d="M12.0437 57.8855C10.2039 49.9698 15.1349 42.0523 23.0506 40.2125L37.3906 36.8794L44.0567 65.5593L29.7167 68.8924C21.8011 70.7322 13.8836 65.8012 12.0437 57.8855Z" fill="#A259FF"/>
<path d="M5.37772 29.2056C3.53787 21.2899 8.46895 13.3724 16.3846 11.5326L30.7246 8.19949L37.3907 36.8794L23.0508 40.2125C15.1351 42.0523 7.21758 37.1213 5.37772 29.2056Z" fill="#F24E1E"/>
<path d="M30.7243 8.19948L45.0643 4.8664C52.98 3.02654 60.8975 7.95762 62.7373 15.8733C64.5772 23.7889 59.6461 31.7065 51.7304 33.5463L37.3905 36.8794L30.7243 8.19948Z" fill="#FF7262"/>
<path d="M69.4036 44.5532C71.2434 52.4689 66.3124 60.3864 58.3967 62.2262C50.4811 64.0661 42.5635 59.135 40.7237 51.2194C38.8838 43.3037 43.8149 35.3862 51.7306 33.5463C59.6462 31.7065 67.5637 36.6375 69.4036 44.5532Z" fill="#1ABCFE"/>
</g>
<rect x="1.33773" y="14.4254" width="60.0667" height="89.5111" transform="rotate(-13.0851 1.33773 14.4254)" stroke="#3F8AE2" stroke-width="1.17778"/>
<defs>
<clipPath id="clip0_521_4710">
<rect x="2.04465" y="14.8656" width="58.8889" height="88.3333" transform="rotate(-13.0851 2.04465 14.8656)" fill="white"/>
</clipPath>
</defs>
</svg>
