<svg width="73" height="52" viewBox="0 0 73 52" fill="none" xmlns="http://www.w3.org/2000/svg">
<rect x="4.55314" y="11.5497" width="58.8859" height="37.096" transform="rotate(-8.46 4.55314 11.5497)" stroke="#3F8AE2" stroke-width="1.17778"/>
<path d="M62.3025 3.55557L49.3746 41.7918L32.2683 44.3361L37.7032 28.473L37.3643 28.5234C32.2801 37.612 23.6944 44.3652 10.5065 47.5729L8.34754 33.0576C8.34754 33.0576 16.8252 31.2782 21.0718 25.2614L7.48845 27.2817L5.22226 12.0455L20.4823 9.77579L22.3461 22.3065L22.685 22.2561L27.0644 8.7968L38.6053 7.08023L40.4571 19.5308L40.7961 19.4804L45.4192 6.06674L62.3025 3.55557Z" fill="#4353FF"/>
<rect x="1.18059" y="9.80273" width="5.88889" height="5.88889" transform="rotate(-8.46 1.18059 9.80273)" fill="white" stroke="#3F8AE2" stroke-width="1.17778"/>
<rect x="58.8917" y="1.55831" width="5.88889" height="5.88889" transform="rotate(-8.46 58.8917 1.55831)" fill="white" stroke="#3F8AE2" stroke-width="1.17778"/>
<rect x="7.06948" y="45.1361" width="5.88889" height="5.88889" transform="rotate(-8.46 7.06948 45.1361)" fill="white" stroke="#3F8AE2" stroke-width="1.17778"/>
<rect x="64.7806" y="36.8916" width="5.88889" height="5.88889" transform="rotate(-8.46 64.7806 36.8916)" fill="white" stroke="#3F8AE2" stroke-width="1.17778"/>
</svg>
