<svg width="55" height="55" viewBox="0 0 55 55" fill="none" xmlns="http://www.w3.org/2000/svg">
<g clip-path="url(#clip0_521_4799)">
<path d="M37.6622 2.64604L12.6395 5.1682C6.54258 5.78273 2.09823 11.2234 2.71277 17.3204L5.23493 42.3431C5.84947 48.44 11.2902 52.8844 17.3871 52.2698L42.4098 49.7477C48.5068 49.1331 52.9511 43.6924 52.3366 37.5955L49.8144 12.5728C49.1999 6.47585 43.7592 2.0315 37.6622 2.64604Z" fill="#470137"/>
<path d="M27.7864 18.5502L23.1847 28.2141L30.046 37.2802C30.0902 37.3501 30.116 37.4218 30.105 37.4973C30.0941 37.5727 30.0149 37.525 29.9064 37.5545L25.693 37.9792C25.3986 38.0088 25.1943 38.0108 25.047 37.8398C24.5827 37.106 24.1019 36.3925 23.6377 35.6586C23.1752 34.9432 22.6742 34.2131 22.1528 33.4665C21.6315 32.7198 21.1102 31.9732 20.587 31.2081L20.5502 31.2118C20.2436 32.0419 19.9002 32.8757 19.5567 33.7096C19.2133 34.5434 18.8699 35.3772 18.543 36.1907C18.1977 37.0062 17.8542 37.84 17.5071 38.637C17.452 38.8284 17.3067 38.8616 17.1043 38.882L13.0565 39.29C12.9829 39.2975 12.9314 39.3398 12.9222 39.2478C12.8963 39.1761 12.9073 39.1006 12.9386 39.0417L17.7149 29.0814L11.1886 20.2046C11.126 20.1366 11.1001 20.0649 11.1332 20.0243C11.1645 19.9654 11.2362 19.9396 11.3098 19.9322L15.4864 19.5112C15.5784 19.502 15.6722 19.5111 15.7477 19.5221C15.825 19.5514 15.8858 19.6011 15.9484 19.6691C16.3777 20.425 16.8622 21.1754 17.3651 21.9239C17.8865 22.6705 18.3875 23.4007 18.9254 24.1271C19.4449 24.8553 19.9275 25.5873 20.3937 26.3395L20.4305 26.3358C20.7352 25.4873 21.0603 24.6553 21.3872 23.8417C21.7141 23.0282 22.0593 22.2128 22.4046 21.3974C22.7499 20.5819 23.075 19.75 23.4037 18.9548C23.4147 18.8794 23.4441 18.8021 23.4956 18.7597C23.5654 18.7155 23.6372 18.6897 23.731 18.6988L27.6132 18.3075C27.7034 18.2798 27.8009 18.3257 27.8286 18.4159C27.8489 18.4324 27.8195 18.5097 27.7864 18.5502ZM38.2433 37.1047C36.8836 37.2603 35.4943 37.1215 34.2041 36.6754C32.9911 36.2587 31.9454 35.472 31.1736 34.4532C30.3797 33.3995 29.9076 32.0345 29.7388 30.3602C29.5832 29.0005 29.7974 27.6221 30.3594 26.376C30.9381 25.1096 31.8499 24.014 32.9974 23.2293C34.2131 22.3819 35.7233 21.8765 37.5448 21.6929C37.6368 21.6836 37.7656 21.6707 37.9331 21.6724C38.1005 21.6741 38.2845 21.6555 38.5072 21.6517L37.9211 15.8376C37.9082 15.7088 37.9559 15.6296 38.0847 15.6166L41.8197 15.2402C41.9099 15.2125 41.9909 15.2787 42.0167 15.3504L43.7859 32.9031C43.8193 33.2343 43.8748 33.6004 43.934 34.0034C44.0097 34.386 44.0652 34.7522 44.1152 35.0631C44.1281 35.1919 44.0841 35.3079 43.9608 35.376C43.0449 35.8772 42.0626 36.2736 41.0508 36.5615C40.1291 36.8216 39.2001 37.0082 38.2433 37.1047ZM39.6755 33.2431L38.8595 25.1475C38.6902 25.1274 38.5209 25.1073 38.3535 25.1056C38.1492 25.1076 37.945 25.1096 37.7426 25.13C37.025 25.2023 36.3223 25.4218 35.7117 25.8179C35.1177 26.1938 34.6305 26.7075 34.285 27.3371C33.9396 27.9667 33.817 28.7782 33.9134 29.735C33.9599 30.3808 34.1352 31.0136 34.4172 31.5985C34.6513 32.0768 34.9717 32.4905 35.3768 32.8214C35.7598 33.1174 36.2089 33.3323 36.7021 33.4313C37.2156 33.5468 37.7382 33.5685 38.2534 33.5165C38.5294 33.4887 38.7851 33.4444 39.0224 33.4019C39.2635 33.3961 39.4621 33.339 39.6755 33.2431Z" fill="#FF61F6"/>
</g>
<rect x="0.955074" y="5.75405" width="48.5181" height="48.5181" transform="rotate(-5.75567 0.955074 5.75405)" stroke="#3F8AE2" stroke-width="1.17778"/>
<defs>
<clipPath id="clip0_521_4799">
<rect x="1.60005" y="6.28091" width="47.3403" height="47.3403" transform="rotate(-5.75567 1.60005 6.28091)" fill="white"/>
</clipPath>
</defs>
</svg>
