<svg width="50" height="64" viewBox="0 0 50 64" fill="none" xmlns="http://www.w3.org/2000/svg">
<rect x="11.332" y="4.60774" width="35.0896" height="52.0456" transform="rotate(7.3 11.332 4.60774)" stroke="#3F8AE2" stroke-width="1.17778"/>
<path d="M22.1961 57.8766L26.5051 24.2396L9.68665 22.0851L7.53215 38.9036L22.1961 57.8766Z" fill="#0053FE"/>
<path d="M43.3238 26.3942L45.4783 9.57568L11.8413 5.26668L26.5053 24.2397L9.68679 22.0852L7.5323 38.9037L41.1693 43.2127L26.5053 24.2397L43.3238 26.3942Z" fill="#00A7FF"/>
<rect x="43.2946" y="5.92469" width="5.88889" height="5.88889" transform="rotate(7.3 43.2946 5.92469)" fill="white" stroke="#3F8AE2" stroke-width="1.17778"/>
<rect x="36.2278" y="56.5691" width="5.88889" height="5.88889" transform="rotate(7.3 36.2278 56.5691)" fill="white" stroke="#3F8AE2" stroke-width="1.17778"/>
<rect x="2.0722" y="51.858" width="5.88889" height="5.88889" transform="rotate(7.3 2.0722 51.858)" fill="white" stroke="#3F8AE2" stroke-width="1.17778"/>
<rect x="9.13897" y="1.21355" width="5.88889" height="5.88889" transform="rotate(7.3 9.13897 1.21355)" fill="white" stroke="#3F8AE2" stroke-width="1.17778"/>
</svg>
