<svg width="106" height="100" viewBox="0 0 106 100" fill="none" xmlns="http://www.w3.org/2000/svg">
<g clip-path="url(#clip0_521_4722)">
<path d="M62.8969 12.2677L39.1369 8.64648L14.8416 28.2218L43.1084 87.323L96.8396 49.8406L85.354 20.8317L62.8969 12.2677Z" fill="#FDB300"/>
<path d="M14.8416 28.2221L43.1085 87.3229L31.4481 32.6004L14.8416 28.2221ZM80.2327 45.4625L43.1085 87.3229L96.8392 49.8409L80.2327 45.4625Z" fill="#EB6C00"/>
<path d="M31.4481 32.6004L43.1084 87.323L80.233 45.4626L31.4481 32.6004Z" fill="#FDAD00"/>
<path d="M39.1369 8.64648L31.4481 32.6001L62.8968 12.2677L39.1369 8.64648ZM80.2326 45.4625L85.3536 20.8316L62.8967 12.268L80.2326 45.4625Z" fill="#FDD231"/>
<path d="M80.2331 45.4626L96.8393 49.8409L85.3537 20.8316L80.2331 45.4626ZM14.8417 28.2221L31.4482 32.6004L39.137 8.64648L14.8417 28.2221Z" fill="#FDAD00"/>
<path d="M62.8968 12.2677L31.4481 32.6001L80.233 45.4623L62.8968 12.2677Z" fill="#FEEEB7"/>
</g>
<rect x="21.4786" y="0.738668" width="85.9778" height="78.9111" transform="rotate(14.77 21.4786 0.738668)" stroke="#3F8AE2" stroke-width="1.17778"/>
<defs>
<clipPath id="clip0_521_4722">
<rect x="21.8979" y="1.45823" width="84.8" height="77.7333" transform="rotate(14.77 21.8979 1.45823)" fill="white"/>
</clipPath>
</defs>
</svg>
